<svg xmlns="http://www.w3.org/2000/svg" xmlns:xlink="http://www.w3.org/1999/xlink" xmlns:s="https://github.com/nturley/netlistsvg" width="591" height="315.5"><style>svg {
  stroke:#000;
  fill:none;
}
text {
  fill:#000;
  stroke:none;
  font-size:10px;
  font-weight: bold;
  font-family: "Courier New", monospace;
}
line {
    stroke-linecap: round;
}
.nodelabel {
  text-anchor: middle;
}
.inputPortLabel {
  text-anchor: end;
}
.splitjoinBody {
  fill:#000;
}</style><g s:type="generic" transform="translate(114,22)" s:width="30" s:height="40" id="cell_PLL"><text x="15" y="-4" class="nodelabel cell_PLL" s:attribute="ref">PLL</text><rect width="30" height="80" s:generic="body" class="cell_PLL"/><g transform="translate(0,10)" s:x="0" s:y="10" s:pid="in0" id="port_PLL~clkin"><text x="-3" y="-4" class="inputPortLabel cell_PLL">clkin</text></g><g transform="translate(30,10)" s:x="30" s:y="10" s:pid="out0" id="port_PLL~clk40"><text x="5" y="-4" style="fill:#000; stroke:none" class="cell_PLL">clk40</text></g><g transform="translate(30,30)" s:x="30" s:y="10" s:pid="out0" id="port_PLL~clk200"><text x="5" y="-4" style="fill:#000; stroke:none" class="cell_PLL">clk200</text></g><g transform="translate(30,50)" s:x="30" s:y="10" s:pid="out0" id="port_PLL~clk125"><text x="5" y="-4" style="fill:#000; stroke:none" class="cell_PLL">clk125</text></g><g transform="translate(30,70)" s:x="30" s:y="10" s:pid="out0" id="port_PLL~locked"><text x="5" y="-4" style="fill:#000; stroke:none" class="cell_PLL">locked</text></g></g><g s:type="generic" transform="translate(519,175.5)" s:width="30" s:height="40" id="cell_MIG"><text x="15" y="-4" class="nodelabel cell_MIG" s:attribute="ref">MIG</text><rect width="30" height="60" s:generic="body" class="cell_MIG"/><g transform="translate(0,10)" s:x="0" s:y="10" s:pid="in0" id="port_MIG~clk_ref"><text x="-3" y="-4" class="inputPortLabel cell_MIG">clk_ref</text></g><g transform="translate(0,30)" s:x="0" s:y="10" s:pid="in0" id="port_MIG~clk_sys"><text x="-3" y="-4" class="inputPortLabel cell_MIG">clk_sys</text></g><g transform="translate(0,50)" s:x="0" s:y="10" s:pid="in0" id="port_MIG~reset"><text x="-3" y="-4" class="inputPortLabel cell_MIG">reset</text></g></g><g s:type="generic" transform="translate(263,207)" s:width="30" s:height="40" id="cell_counter"><text x="15" y="-4" class="nodelabel cell_counter" s:attribute="ref">counter</text><rect width="30" height="40" s:generic="body" class="cell_counter"/><g transform="translate(0,10)" s:x="0" s:y="10" s:pid="in0" id="port_counter~clk"><text x="-3" y="-4" class="inputPortLabel cell_counter">clk</text></g><g transform="translate(0,30)" s:x="0" s:y="10" s:pid="in0" id="port_counter~start"><text x="-3" y="-4" class="inputPortLabel cell_counter">start</text></g><g transform="translate(30,10)" s:x="30" s:y="10" s:pid="out0" id="port_counter~elapsed"><text x="5" y="-4" style="fill:#000; stroke:none" class="cell_counter">elapsed</text></g></g><g s:type="generic" transform="translate(391,107.5)" s:width="30" s:height="40" id="cell_sync"><text x="15" y="-4" class="nodelabel cell_sync" s:attribute="ref">sync</text><rect width="30" height="40" s:generic="body" class="cell_sync"/><g transform="translate(0,10)" s:x="0" s:y="10" s:pid="in0" id="port_sync~clk"><text x="-3" y="-4" class="inputPortLabel cell_sync">clk</text></g><g transform="translate(0,30)" s:x="0" s:y="10" s:pid="in0" id="port_sync~in"><text x="-3" y="-4" class="inputPortLabel cell_sync">in</text></g><g transform="translate(30,10)" s:x="30" s:y="10" s:pid="out0" id="port_sync~out"><text x="5" y="-4" style="fill:#000; stroke:none" class="cell_sync">out</text></g></g><g s:type="generic" transform="translate(507,87.5)" s:width="30" s:height="40" id="cell_businterface"><text x="15" y="-4" class="nodelabel cell_businterface" s:attribute="ref">businterface</text><rect width="30" height="40" s:generic="body" class="cell_businterface"/><g transform="translate(0,10)" s:x="0" s:y="10" s:pid="in0" id="port_businterface~clk"><text x="-3" y="-4" class="inputPortLabel cell_businterface">clk</text></g><g transform="translate(0,30)" s:x="0" s:y="10" s:pid="in0" id="port_businterface~reset"><text x="-3" y="-4" class="inputPortLabel cell_businterface">reset</text></g></g><g s:type="inputExt" transform="translate(12,207.5)" s:width="30" s:height="20" id="cell_clk100"><text x="15" y="-4" class="nodelabel cell_clk100" s:attribute="ref">clk100</text><s:alias val="$_inputExt_"/><path d="M0,0 L0,20 L15,20 L30,10 L15,0 Z" class="cell_clk100"/><g s:x="30" s:y="10" s:pid="Y"/></g><g s:type="outputExt" transform="translate(519,22.5)" s:width="30" s:height="20" id="cell_clk40"><text x="15" y="-4" class="nodelabel cell_clk40" s:attribute="ref">clk40</text><s:alias val="$_outputExt_"/><path d="M30,0 L30,20 L15,20 L0,10 L15,0 Z" class="cell_clk40"/><g s:x="0" s:y="10" s:pid="A"/></g><g s:type="outputExt" transform="translate(519,283.5)" s:width="30" s:height="20" id="cell_clk125"><text x="15" y="-4" class="nodelabel cell_clk125" s:attribute="ref">clk125</text><s:alias val="$_outputExt_"/><path d="M30,0 L30,20 L15,20 L0,10 L15,0 Z" class="cell_clk125"/><g s:x="0" s:y="10" s:pid="A"/></g><line x1="42" x2="58" y1="217.5" y2="217.5" class="net_2 width_1" style="stroke-width: 1"/><line x1="58" x2="58" y1="217.5" y2="32.5" class="net_2 width_1" style="stroke-width: 1"/><circle cx="58" cy="217.5" r="2" style="fill:#000" class="net_2 width_1"/><line x1="58" x2="114" y1="32.5" y2="32.5" class="net_2 width_1" style="stroke-width: 1"/><line x1="42" x2="202" y1="217.5" y2="217.5" class="net_2 width_1" style="stroke-width: 1"/><line x1="202" x2="202" y1="217.5" y2="260" class="net_2 width_1" style="stroke-width: 1"/><line x1="202" x2="451" y1="260" y2="260" class="net_2 width_1" style="stroke-width: 1"/><line x1="451" x2="451" y1="260" y2="206" class="net_2 width_1" style="stroke-width: 1"/><circle cx="202" cy="217.5" r="2" style="fill:#000" class="net_2 width_1"/><line x1="451" x2="519" y1="206" y2="206" class="net_2 width_1" style="stroke-width: 1"/><line x1="42" x2="263" y1="217.5" y2="217.5" class="net_2 width_1" style="stroke-width: 1"/><line x1="145" x2="222" y1="52.5" y2="52.5" class="net_6 width_1" style="stroke-width: 1"/><line x1="222" x2="222" y1="52.5" y2="186" class="net_6 width_1" style="stroke-width: 1"/><line x1="222" x2="519" y1="186" y2="186" class="net_6 width_1" style="stroke-width: 1"/><line x1="294" x2="347" y1="217.5" y2="217.5" class="net_4 width_1" style="stroke-width: 1"/><line x1="347" x2="347" y1="217.5" y2="271" class="net_4 width_1" style="stroke-width: 1"/><line x1="347" x2="461" y1="271" y2="271" class="net_4 width_1" style="stroke-width: 1"/><line x1="461" x2="461" y1="271" y2="226" class="net_4 width_1" style="stroke-width: 1"/><circle cx="347" cy="217.5" r="2" style="fill:#000" class="net_4 width_1"/><line x1="461" x2="519" y1="226" y2="226" class="net_4 width_1" style="stroke-width: 1"/><line x1="294" x2="347" y1="217.5" y2="217.5" class="net_4 width_1" style="stroke-width: 1"/><line x1="347" x2="347" y1="217.5" y2="138" class="net_4 width_1" style="stroke-width: 1"/><line x1="347" x2="391" y1="138" y2="138" class="net_4 width_1" style="stroke-width: 1"/><line x1="145" x2="212" y1="92.5" y2="92.5" class="net_8 width_1" style="stroke-width: 1"/><line x1="212" x2="212" y1="92.5" y2="237.5" class="net_8 width_1" style="stroke-width: 1"/><line x1="212" x2="263" y1="237.5" y2="237.5" class="net_8 width_1" style="stroke-width: 1"/><line x1="145" x2="347" y1="32.5" y2="32.5" class="net_3 width_1" style="stroke-width: 1"/><line x1="347" x2="347" y1="32.5" y2="118" class="net_3 width_1" style="stroke-width: 1"/><circle cx="347" cy="32.5" r="2" style="fill:#000" class="net_3 width_1"/><line x1="347" x2="391" y1="118" y2="118" class="net_3 width_1" style="stroke-width: 1"/><line x1="145" x2="451" y1="32.5" y2="32.5" class="net_3 width_1" style="stroke-width: 1"/><line x1="451" x2="451" y1="32.5" y2="98" class="net_3 width_1" style="stroke-width: 1"/><circle cx="451" cy="32.5" r="2" style="fill:#000" class="net_3 width_1"/><line x1="451" x2="507" y1="98" y2="98" class="net_3 width_1" style="stroke-width: 1"/><line x1="145" x2="519" y1="32.5" y2="32.5" class="net_3 width_1" style="stroke-width: 1"/><line x1="422" x2="507" y1="118" y2="118" class="net_7 width_1" style="stroke-width: 1"/><line x1="145" x2="192" y1="72.5" y2="72.5" class="net_5 width_1" style="stroke-width: 1"/><line x1="192" x2="192" y1="72.5" y2="293.5" class="net_5 width_1" style="stroke-width: 1"/><line x1="192" x2="519" y1="293.5" y2="293.5" class="net_5 width_1" style="stroke-width: 1"/></svg>